<!DOCTYPE svg PUBLIC "-//W3C//DTD SVG 1.1//EN" "http://www.w3.org/Graphics/SVG/1.1/DTD/svg11.dtd">
<!-- Uploaded to: SVG Repo, www.svgrepo.com, Transformed by: SVG Repo Mixer Tools -->
<svg fill="#3B3B3B" width="800px" height="800px" viewBox="0 0 64 64" xmlns="http://www.w3.org/2000/svg">
<g id="SVGRepo_bgCarrier" stroke-width="0"/>
<g id="SVGRepo_tracerCarrier" stroke-linecap="round" stroke-linejoin="round"/>
<g id="SVGRepo_iconCarrier"> <g data-name="Layer 6" id="Layer_6"> <path d="M55.58,15.15c-.46-2.78-3.08-9.58-3.65-11a1,1,0,0,0-1.86,0c-.24.63-.86,2.23-1.53,4.08a29.05,29.05,0,1,0,7,7ZM51,7.3c.51,1.36,1,2.84,1.48,4.18a22.06,22.06,0,0,1,1.17,4.36v.05a2.65,2.65,0,0,1-5.3-.05,21.85,21.85,0,0,1,1.17-4.35c.22-.65.45-1.34.7-2S50.74,8,51,7.3ZM32,59A27,27,0,1,1,47.85,10.16a25.35,25.35,0,0,0-1.5,5.68A4.65,4.65,0,0,0,55.1,18,27,27,0,0,1,32,59ZM47,33H17a1,1,0,0,0-1,1c0,9.93,7.18,18,16,18s16-8.07,16-18A1,1,0,0,0,47,33ZM18,35H46a18,18,0,0,1-.67,4H18.71A18,18,0,0,1,18,35ZM26.7,48.8a6.42,6.42,0,0,1,10.6,0,12.3,12.3,0,0,1-10.6,0Zm12.34-1A8.81,8.81,0,0,0,32,44a8.81,8.81,0,0,0-7,3.81A15.56,15.56,0,0,1,19.43,41H44.57A15.56,15.56,0,0,1,39,47.81ZM36.11,26.55l5-10a.28.28,0,0,1,.07-.09.71.71,0,0,1,.28-.28s.06-.06.09-.07.05,0,.07,0a1.17,1.17,0,0,1,.2-.06L42,16l.18,0a1.17,1.17,0,0,1,.2.06s0,0,.07,0l.09.06.16.13a.61.61,0,0,1,.12.16s.06.06.07.09l5,10a1,1,0,0,1-.44,1.34A.93.93,0,0,1,47,28a1,1,0,0,1-.89-.55L42,19.24l-4.11,8.21A1,1,0,0,1,37,28a.93.93,0,0,1-.45-.11A1,1,0,0,1,36.11,26.55Zm-20,0,5-10a.28.28,0,0,1,.07-.09.71.71,0,0,1,.28-.28.28.28,0,0,1,.09-.07s.05,0,.07,0a1.17,1.17,0,0,1,.2-.06L22,16l.18,0a1.17,1.17,0,0,1,.2.06s.05,0,.07,0a.28.28,0,0,1,.09.07.71.71,0,0,1,.28.28.28.28,0,0,1,.07.09l5,10a1,1,0,0,1-.44,1.34A.93.93,0,0,1,27,28a1,1,0,0,1-.89-.55L22,19.24l-4.11,8.21A1,1,0,0,1,17,28a.93.93,0,0,1-.45-.11A1,1,0,0,1,16.11,26.55Z"/> </g> </g>
</svg>