<!DOCTYPE svg PUBLIC "-//W3C//DTD SVG 1.1//EN" "http://www.w3.org/Graphics/SVG/1.1/DTD/svg11.dtd">
<!-- Uploaded to: SVG Repo, www.svgrepo.com, Transformed by: SVG Repo Mixer Tools -->
<svg fill="#3B3B3B" width="800px" height="800px" viewBox="0 0 64 64" xmlns="http://www.w3.org/2000/svg">
<g id="SVGRepo_bgCarrier" stroke-width="0"/>
<g id="SVGRepo_tracerCarrier" stroke-linecap="round" stroke-linejoin="round"/>
<g id="SVGRepo_iconCarrier"> <g data-name="Layer 17" id="Layer_17"> <path d="M32,3A29,29,0,1,0,61,32,29,29,0,0,0,32,3Zm0,56A27,27,0,1,1,59,32,27,27,0,0,1,32,59ZM48.67,41.25a1,1,0,0,1-1.34,1.5l-.53-.49C44.21,39.92,39.88,36,32,36s-12.21,3.92-14.8,6.26l-.53.49a1,1,0,1,1-1.34-1.5l.53-.47C18.66,38.25,23.35,34,32,34s13.34,4.25,16.14,6.78ZM36,22a1.1,1.1,0,0,1,0-.18,1.17,1.17,0,0,1,.06-.2s0-.05,0-.07a.28.28,0,0,1,.07-.09.71.71,0,0,1,.28-.28s.06-.06.09-.07l10-5a1,1,0,1,1,.9,1.78L39.24,22l8.21,4.11a1,1,0,0,1,.44,1.34A1,1,0,0,1,47,28a.93.93,0,0,1-.45-.11l-10-5h0a1.18,1.18,0,0,1-.28-.22l0-.06a.65.65,0,0,1-.1-.15s0-.05,0-.07a1.17,1.17,0,0,1-.06-.2A1.1,1.1,0,0,1,36,22ZM16.55,26.11,24.76,22l-8.21-4.11a1,1,0,1,1,.9-1.78l10,5s.06.05.09.07a.71.71,0,0,1,.28.28.28.28,0,0,1,.07.09s0,.05,0,.07a1.17,1.17,0,0,1,.06.2.82.82,0,0,1,0,.36,1.17,1.17,0,0,1-.06.2s0,.05,0,.07a.65.65,0,0,1-.1.15.21.21,0,0,0,0,.06,1.18,1.18,0,0,1-.28.22h0l-10,5A.93.93,0,0,1,17,28a1,1,0,0,1-.89-.55A1,1,0,0,1,16.55,26.11Z"/> </g> </g>
</svg>