<svg width="42" height="39" viewBox="0 0 42 39" fill="none" xmlns="http://www.w3.org/2000/svg">
<path d="M9.62506 24.375C11.1565 24.3669 12.6294 23.828 13.7551 22.8638L24.7101 28.6813C24.5705 29.1302 24.4998 29.5952 24.5001 30.0625C24.4888 31.3813 24.9673 32.6633 25.8549 33.6929C26.7425 34.7224 27.985 35.4365 29.3732 35.7149C30.7615 35.9933 32.2106 35.819 33.4767 35.2214C34.7427 34.6238 35.7484 33.6394 36.3242 32.4338C36.9001 31.2283 37.0111 29.8754 36.6384 28.6028C36.2658 27.3302 35.4322 26.2157 34.2782 25.447C33.1242 24.6782 31.7202 24.3022 30.3026 24.3822C28.8849 24.4623 27.5403 24.9934 26.4951 25.8863L15.5401 20.0688C15.6723 19.6683 15.743 19.2525 15.7501 18.8338L26.5126 13.1138C27.5522 13.9861 28.8832 14.5 30.2824 14.5693C31.6816 14.6385 33.0639 14.2589 34.1975 13.4941C35.3311 12.7293 36.147 11.6258 36.5084 10.3687C36.8697 9.11157 36.7546 7.77731 36.1823 6.58967C35.61 5.40203 34.6153 4.43324 33.365 3.84578C32.1148 3.25832 30.685 3.08791 29.3155 3.36315C27.946 3.63838 26.7201 4.34252 25.8433 5.35746C24.9666 6.37239 24.4923 7.63641 24.5001 8.93751C24.506 9.40438 24.5766 9.86861 24.7101 10.3188L14.7526 15.6C14.1756 14.7712 13.3763 14.096 12.4333 13.6409C11.4902 13.1858 10.4358 12.9664 9.3738 13.0042C8.31177 13.0421 7.27861 13.3359 6.37589 13.8567C5.47316 14.3776 4.73194 15.1077 4.22507 15.9751C3.7182 16.8425 3.46313 17.8175 3.48493 18.8042C3.50673 19.7909 3.80466 20.7553 4.34942 21.6027C4.89418 22.4501 5.66703 23.1513 6.59201 23.6374C7.51698 24.1235 8.56224 24.3777 9.62506 24.375ZM30.6251 27.625C31.1442 27.625 31.6518 27.768 32.0834 28.0358C32.5151 28.3036 32.8516 28.6843 33.0502 29.1297C33.2489 29.5751 33.3009 30.0652 33.1996 30.538C33.0983 31.0109 32.8483 31.4452 32.4812 31.7861C32.1141 32.127 31.6464 32.3591 31.1372 32.4532C30.628 32.5472 30.1002 32.499 29.6205 32.3145C29.1409 32.13 28.7309 31.8176 28.4424 31.4167C28.154 31.0159 28.0001 30.5446 28.0001 30.0625C28.0001 29.416 28.2766 28.7961 28.7689 28.3389C29.2612 27.8818 29.9289 27.625 30.6251 27.625ZM30.6251 6.50001C31.1442 6.50001 31.6518 6.64297 32.0834 6.9108C32.5151 7.17864 32.8516 7.55932 33.0502 8.00472C33.2489 8.45011 33.3009 8.94021 33.1996 9.41304C33.0983 9.88587 32.8483 10.3202 32.4812 10.6611C32.1141 11.002 31.6464 11.2341 31.1372 11.3282C30.628 11.4222 30.1002 11.374 29.6205 11.1895C29.1409 11.005 28.7309 10.6926 28.4424 10.2917C28.154 9.89087 28.0001 9.4196 28.0001 8.93751C28.0001 8.29104 28.2766 7.67106 28.7689 7.21394C29.2612 6.75682 29.9289 6.50001 30.6251 6.50001ZM9.62506 16.25C10.1442 16.25 10.6518 16.393 11.0834 16.6608C11.5151 16.9286 11.8516 17.3093 12.0502 17.7547C12.2489 18.2001 12.3009 18.6902 12.1996 19.163C12.0983 19.6359 11.8483 20.0702 11.4812 20.4111C11.1141 20.752 10.6464 20.9841 10.1372 21.0782C9.62797 21.1722 9.10017 21.124 8.62051 20.9395C8.14086 20.755 7.73089 20.4426 7.44245 20.0417C7.15401 19.6409 7.00006 19.1696 7.00006 18.6875C7.00006 18.041 7.27662 17.4211 7.7689 16.9639C8.26118 16.5068 8.92886 16.25 9.62506 16.25Z" fill="white"/>
</svg>
