<svg width="27" height="28" viewBox="0 0 27 28" fill="none" xmlns="http://www.w3.org/2000/svg">
<path d="M22.0871 9.32984C22.1017 9.53401 22.1017 9.73701 22.1017 9.94001C22.1017 16.1525 17.5421 23.3112 9.20925 23.3112C6.642 23.3112 4.257 22.54 2.25 21.2007C2.6145 21.2438 2.9655 21.259 3.34462 21.259C5.38424 21.2641 7.3661 20.5568 8.97075 19.2512C8.0251 19.2334 7.1084 18.9099 6.34864 18.3257C5.58889 17.7415 5.02401 16.9259 4.73287 15.9927C5.013 16.0358 5.29425 16.065 5.589 16.065C5.99512 16.065 6.4035 16.0067 6.78262 15.9052C5.75636 15.6903 4.83353 15.1134 4.17107 14.2726C3.50861 13.4319 3.1474 12.3791 3.14887 11.2933V11.235C3.753 11.5838 4.45387 11.802 5.19637 11.8312C4.57435 11.4025 4.06431 10.8209 3.71176 10.1381C3.3592 9.45533 3.1751 8.69267 3.17587 7.91818C3.17587 7.04551 3.39975 6.24518 3.79238 5.54751C4.93103 7.00003 6.35119 8.18833 7.96088 9.03544C9.57056 9.88256 11.3339 10.3696 13.1366 10.465C13.0669 10.115 13.0241 9.75218 13.0241 9.38818C13.0238 8.77097 13.1408 8.15974 13.3685 7.58946C13.5961 7.01917 13.9299 6.501 14.3507 6.06456C14.7716 5.62813 15.2712 5.28199 15.8211 5.04593C16.3711 4.80988 16.9605 4.68854 17.5556 4.68884C18.8606 4.68884 20.0385 5.25584 20.8665 6.17284C21.881 5.9694 22.8539 5.58534 23.742 5.03768C23.4038 6.12363 22.6955 7.04446 21.7496 7.62768C22.6494 7.52125 23.5287 7.27587 24.3585 6.89968C23.7388 7.83662 22.9708 8.65825 22.0871 9.32984Z" fill="white"/>
</svg>
